<?xml version="1.0" encoding="iso-8859-1"?>
<!-- Uploaded to: SVG Repo, www.svgrepo.com, Generator: SVG Repo Mixer Tools -->
<svg fill="#000000" height="800px" width="800px" version="1.1" id="Layer_1" xmlns="http://www.w3.org/2000/svg" xmlns:xlink="http://www.w3.org/1999/xlink" 
	 viewBox="0 0 330 330" xml:space="preserve">
<path id="XMLID_91_" d="M330,176.25c0-23.976-16.161-44.234-38.157-50.492C285.313,61.534,230.918,11.25,165,11.25
	S44.686,61.534,38.157,125.758C16.161,132.016,0,152.274,0,176.25c0,24.796,17.285,45.617,40.435,51.085l20.013,80.053
	c1.669,6.677,7.669,11.362,14.552,11.362h60h0.02H195h60c6.883,0,12.883-4.685,14.552-11.362l20.013-80.053
	C312.715,221.867,330,201.046,330,176.25z M71.711,228.75h39.863l4.445,40l2.222,20h-31.53L71.711,228.75z M186.019,248.75
	l-4.445,40h-33.148l-3.93-35.371l-2.737-24.629h46.482L186.019,248.75z M243.289,288.75h-31.53l2.222-20l4.445-40h39.863
	L243.289,288.75z M277.5,198.75H205h-80H52.5c-12.407,0-22.5-10.093-22.5-22.5s10.093-22.5,22.5-22.5c8.284,0,15-6.716,15-15
	c0-53.762,43.738-97.5,97.5-97.5s97.5,43.738,97.5,97.5c0,8.284,6.716,15,15,15c12.407,0,22.5,10.093,22.5,22.5
	S289.907,198.75,277.5,198.75z"/>
</svg>